#!OML:ASF I:\Actors\actors\Patient Classification 2\Patient 1\Session 1\actor1.ASF
:FULLY-SPECIFIED
:DEGREES
934
root -0.740908 18.6621 5.95379 0.0657747 -1.11193 -2.53246
lowerback 3.0543 1.09764 1.01528
upperback -1.99091 1.53476 0.613386
thorax -3.75185 0.745991 -0.0333406
lowerneck -11.6491 -1.3259 0.298778
upperneck 21.3018 -2.20336 1.30382
head 8.56429 -0.880921 0.151403
rclavicle -2.63576e-014 -7.85199e-015
rhumerus -49.8766 -5.81163 -82.533
rradius 44.2828
rwrist 15.3155
rhand -10.758 -30.0607
rfingers 7.12502
rthumb 15.2536 -59.4783
lclavicle -2.63576e-014 -7.85199e-015
lhumerus -43.4216 -1.93338 91.025
lradius 41.1082
lwrist -10.1224
lhand -5.11872 -22.8162
lfingers 7.12502
lthumb 20.6793 6.10214
rfemur 0 0 0
rtibia 0
rfoot 0 0
rtoes 0
lfemur -2.34305 -7.17867 -11.761
ltibia 21.2615
lfoot -22.8793 13.6516
ltoes -55.8709
935
root -0.741029 18.6621 5.94725 0.0258389 -1.09024 -2.46669
lowerback 3.09267 1.08972 0.943035
upperback -1.9797 1.52089 0.603983
thorax -3.76361 0.740776 -0.00240722
lowerneck -11.5798 -1.34665 0.286384
upperneck 21.2833 -2.23475 1.33037
head 8.54594 -0.894599 0.159583
rclavicle 1.50269e-014 1.25234e-014
rhumerus -49.7637 -5.78515 -82.4064
rradius 43.992
rwrist 15.5585
rhand -10.5769 -30.3088
rfingers 7.12502
rthumb 15.4281 -59.713
lclavicle 1.50269e-014 1.25234e-014
lhumerus -43.249 -2.0397 91.1225
lradius 41.0982
lwrist -10.0495
lhand -5.30541 -23.0363
lfingers 7.12502
lthumb 20.4999 5.90141
rfemur 0 0 0
rtibia 0
rfoot 0 0
rtoes 0
lfemur -2.32507 -7.16752 -11.8261
ltibia 21.2422
lfoot -22.8364 13.6395
ltoes -55.8992
936
root -0.740921 18.6612 5.94099 -0.00849756 -1.04784 -2.47478
lowerback 3.10556 1.06629 0.950836
upperback -1.96291 1.49053 0.620216
thorax -3.75395 0.725765 0.0117543
lowerneck -11.5353 -1.36288 0.267811
upperneck 21.3026 -2.25494 1.33631
head 8.54465 -0.905119 0.162814
rclavicle -2.03754e-014 -1.81888e-014
rhumerus -49.6952 -5.60874 -82.4546
rradius 43.988
rwrist 15.7653
rhand -10.2333 -30.7378
rfingers 7.12502
rthumb 15.759 -60.1162
lclavicle -2.03754e-014 -1.81888e-014
lhumerus -43.0944 -2.05276 91.2011
lradius 41.0807
lwrist -9.98502
lhand -5.37737 -23.018
lfingers 7.12502
lthumb 20.4308 5.92718
rfemur 0 0 0
rtibia 0
rfoot 0 0
rtoes 0
lfemur -2.31696 -7.20067 -11.807
ltibia 21.2308
lfoot -22.8373 13.5618
ltoes -55.8049
937
root -0.741 18.6607 5.93483 -0.0190002 -1.03625 -2.56064
lowerback 3.07875 1.06559 1.06361
upperback -1.94238 1.49486 0.63818
thorax -3.7152 0.725516 -0.0323557
lowerneck -11.5103 -1.38492 0.293375
upperneck 21.3477 -2.28494 1.30644
head 8.55489 -0.920008 0.145365
rclavicle -4.72114e-016 -9.93923e-017
rhumerus -49.6389 -5.54924 -82.4477
rradius 43.8113
rwrist 15.8496
rhand -10.4781 -30.5628
rfingers 7.12502
rthumb 15.5232 -59.9597
lclavicle -4.72114e-016 -9.93923e-017
lhumerus -42.9284 -2.05014 91.2454
lradius 40.992
lwrist -10.0446
lhand -5.49507 -23.072
lfingers 7.12502
lthumb 20.3177 5.88524
rfemur 0 0 0
rtibia 0
rfoot 0 0
rtoes 0
lfemur -2.32833 -7.22223 -11.7032
ltibia 21.2313
lfoot -22.875 13.4899
ltoes -55.6903
938
root -0.74164 18.6607 5.92793 -0.00139535 -1.04635 -2.62122
lowerback 3.04481 1.07001 1.16682
upperback -1.92471 1.50461 0.634132
thorax -3.67496 0.727976 -0.0939683
lowerneck -11.507 -1.39645 0.326251
upperneck 21.396 -2.30179 1.27549
head 8.56997 -0.928057 0.127551
rclavicle 4.7025e-015 3.47873e-015
rhumerus -49.5595 -5.52056 -82.4726
rradius 43.6615
rwrist 16.0075
rhand -10.282 -30.602
rfingers 7.12502
rthumb 15.7121 -59.9842
lclavicle 4.7025e-015 3.47873e-015
lhumerus -42.7862 -2.05064 91.2628
lradius 40.8962
lwrist -10.2142
lhand -5.65582 -23.1426
lfingers 7.12502
lthumb 20.1632 5.83099
rfemur 0 0 0
rtibia 0
rfoot 0 0
rtoes 0
lfemur -2.37494 -7.19746 -11.6217
ltibia 21.2468
lfoot -22.9234 13.435
ltoes -55.6296
939
root -0.742155 18.6607 5.92155 0.0327267 -1.04002 -2.63697
lowerback 2.97149 1.05707 1.22733
upperback -1.89411 1.48787 0.619355
thorax -3.6001 0.718488 -0.140136
lowerneck -11.4802 -1.39537 0.319207
upperneck 21.3715 -2.29941 1.28133
head 8.55686 -0.927326 0.131224
rclavicle 4.13721e-015 6.16232e-015
rhumerus -49.4442 -5.4706 -82.5358
rradius 43.5465
rwrist 16.1028
rhand -9.95342 -30.8065
rfingers 7.12502
rthumb 16.0285 -60.1635
lclavicle 4.13721e-015 6.16232e-015
lhumerus -42.6634 -2.00436 91.2622
lradius 40.8096
lwrist -10.3761
lhand -5.76319 -23.1579
lfingers 7.12502
lthumb 20.06 5.82659
rfemur 0 0 0
rtibia 0
rfoot 0 0
rtoes 0
lfemur -2.44649 -7.21048 -11.5924
ltibia 21.2671
lfoot -22.9369 13.4052
ltoes -55.5721
940
root -0.742507 18.6604 5.91549 0.04397 -1.008 -2.63007
lowerback 2.92137 1.03498 1.25966
upperback -1.86265 1.45765 0.594531
thorax -3.53811 0.702821 -0.180582
lowerneck -11.4219 -1.38513 0.336426
upperneck 21.3117 -2.28957 1.29288
head 8.52576 -0.921071 0.133889
rclavicle -3.18055e-015 3.37934e-015
rhumerus -49.3532 -5.46119 -82.6141
rradius 43.452
rwrist 16.1935
rhand -9.80197 -30.9257
rfingers 7.12502
rthumb 16.1743 -60.2709
lclavicle -3.18055e-015 3.37934e-015
lhumerus -42.5683 -1.93727 91.2425
lradius 40.698
lwrist -10.5074
lhand -5.90933 -23.2335
lfingers 7.12502
lthumb 19.9195 5.76563
rfemur 0 0 0
rtibia 0
rfoot 0 0
rtoes 0
lfemur -2.49362 -7.26895 -11.5927
ltibia 21.2813
lfoot -22.9113 13.3841
ltoes -55.5112
941
root -0.743066 18.6603 5.90914 0.0490393 -1.00603 -2.62105
lowerback 2.9377 1.02636 1.26988
upperback -1.86762 1.4463 0.574476
thorax -3.55184 0.696554 -0.206646
lowerneck -11.351 -1.38019 0.370913
upperneck 21.298 -2.28487 1.27515
head 8.50739 -0.918491 0.123258
rclavicle 4.37947e-015 6.85807e-015
rhumerus -49.3735 -5.44716 -82.7125
rradius 43.4499
rwrist 16.2517
rhand -9.83892 -30.8719
rfingers 7.12502
rthumb 16.1388 -60.22
lclavicle 4.37947e-015 6.85807e-015
lhumerus -42.5578 -1.88813 91.241
lradius 40.581
lwrist -10.6159
lhand -6.0608 -23.3139
lfingers 7.12502
lthumb 19.7739 5.70025
rfemur 0 0 0
rtibia 0
rfoot 0 0
rtoes 0
lfemur -2.52346 -7.2634 -11.5908
ltibia 21.2864
lfoot -22.9085 13.3495
ltoes -55.4721
942
root -0.743499 18.6611 5.90293 0.0452898 -1.05896 -2.62996
lowerback 2.96228 1.03932 1.30079
upperback -1.85981 1.46495 0.562994
thorax -3.55638 0.704922 -0.237268
lowerneck -11.3292 -1.38853 0.389279
upperneck 21.3163 -2.29262 1.24035
head 8.50891 -0.924209 0.107808
rclavicle 1.45175e-014 1.11319e-014
rhumerus -49.4151 -5.39229 -82.8619
rradius 43.5124
rwrist 16.1738
rhand -10.5732 -30.9142
rfingers 7.12502
rthumb 15.4316 -60.3182
lclavicle 1.45175e-014 1.11319e-014
lhumerus -42.5671 -1.86847 91.2649
lradius 40.4499
lwrist -10.7789
lhand -6.10873 -23.4227
lfingers 7.12502
lthumb 19.7278 5.59624
rfemur 0 0 0
rtibia 0
rfoot 0 0
rtoes 0
lfemur -2.52688 -7.18568 -11.5777
ltibia 21.2826
lfoot -22.9118 13.3625
ltoes -55.4782
